<svg width="72" height="72" viewBox="0 0 72 72" fill="none" xmlns="http://www.w3.org/2000/svg">
<path opacity="0.4" d="M32.2496 7.34996C34.3196 5.57996 37.7097 5.57996 39.8097 7.34996L44.5496 11.43C45.4496 12.21 47.1297 12.84 48.3297 12.84H53.4296C56.6096 12.84 59.2197 15.45 59.2197 18.63V23.73C59.2197 24.9 59.8496 26.61 60.6296 27.51L64.7096 32.25C66.4796 34.32 66.4796 37.71 64.7096 39.81L60.6296 44.55C59.8496 45.45 59.2197 47.13 59.2197 48.33V53.43C59.2197 56.61 56.6096 59.22 53.4296 59.22H48.3297C47.1596 59.22 45.4496 59.85 44.5496 60.63L39.8097 64.71C37.7396 66.48 34.3496 66.48 32.2496 64.71L27.5096 60.63C26.6096 59.85 24.9296 59.22 23.7296 59.22H18.5396C15.3596 59.22 12.7496 56.61 12.7496 53.43V48.3C12.7496 47.13 12.1196 45.45 11.3696 44.55L7.31965 39.78C5.57965 37.71 5.57965 34.35 7.31965 32.28L11.3696 27.51C12.1196 26.61 12.7496 24.93 12.7496 23.76V18.6C12.7496 15.42 15.3596 12.81 18.5396 12.81H23.7296C24.8996 12.81 26.6096 12.18 27.5096 11.4L32.2496 7.34996Z" fill="#2476FF"/>
<path d="M32.3687 45.5098C31.7687 45.5098 31.1987 45.2698 30.7787 44.8498L23.5187 37.5898C22.6487 36.7198 22.6487 35.2798 23.5187 34.4098C24.3887 33.5398 25.8287 33.5398 26.6987 34.4098L32.3687 40.0798L45.2687 27.1798C46.1387 26.3098 47.5787 26.3098 48.4487 27.1798C49.3187 28.0498 49.3187 29.4898 48.4487 30.3598L33.9587 44.8498C33.5387 45.2698 32.9687 45.5098 32.3687 45.5098Z" fill="#2476FF"/>
</svg>
